:SAMPLES-PER-SECOND 30
:FULLY-SPECIFIED
:DEGREES
474
root  -33.0257 34.7197 3.36973 -173.539 80.1174 179.528
RightUpLeg  -7.13322 -10.8213 -1.68247
RightLeg  10.5473 10.1376 1.21649
RightFoot  1.35471 0.00128446 0.347872
RightToes  -35.0409 -0.179499 -0.284805
Spine  -2.1167 0.876144 -0.420795
Spine1  -4.27887 1.92785 -0.238029
HEad  -41.2633 -14.5849 13.0147
LeftShoulder1  -1.94126e-019 -3.10601e-018 -2.51263e-017
LeftArm  -24.084 32.4287 -79.5151
LeftForeArm  26.3499 -15.2752 -2.34932
LeftHand  -0.298298 0.370172 6.91988
RightShoulder  -4.96962e-017 0 -2.36833e-017
RightArm  -31.622 -23.379 75.6958
RightForeArm  55.8727 12.9876 1.39016
RightHand  -0.302732 -0.813937 -7.63359
LeftUpLeg  -8.79277 1.99624 -0.959344
LeftLeg  11.2316 13.7177 1.79863
LeftFoot  2.2931 -0.0112081 0.721584
LeftToes  -17.0125 1.89912e-006 4.45198e-008
475
root  -33.0115 34.8244 3.40155 -173.651 80.1611 179.352
RightUpLeg  -6.23899 -10.7319 -1.64161
RightLeg  8.57281 10.1273 0.864617
RightFoot  2.32492 -0.000829331 0.509408
RightToes  -34.8848 -0.178789 -0.284122
Spine  -2.14825 0.800934 -0.423659
Spine1  -4.37765 1.71523 -0.233774
HEad  -40.8552 -13.1861 12.6136
LeftShoulder1  -1.94126e-019 -3.10601e-018 -2.51263e-017
LeftArm  -20.446 30.1407 -80.3042
LeftForeArm  26.2803 -18.9482 -2.7642
LeftHand  -0.309936 -0.0478797 6.67698
RightShoulder  -4.96962e-017 0 -2.36833e-017
RightArm  -28.7398 -21.6499 76.1079
RightForeArm  54.6803 14.095 1.26477
RightHand  -0.303147 -0.686355 -7.4503
LeftUpLeg  -7.56101 1.78371 -0.938651
LeftLeg  8.57258 14.0017 1.18486
LeftFoot  3.64372 -0.028546 1.05898
LeftToes  -16.9928 1.89912e-006 4.45198e-008
476
root  -33.0039 34.8842 3.43912 -173.737 80.2148 179.244
RightUpLeg  -5.68679 -10.6733 -1.59058
RightLeg  7.36518 10.1185 0.650565
RightFoot  2.94934 -0.00388138 0.621933
RightToes  -34.9587 -0.178127 -0.283456
Spine  -2.19082 0.694605 -0.44689
Spine1  -4.46034 1.48929 -0.240523
HEad  -40.6567 -11.6812 12.0139
LeftShoulder1  -1.94126e-019 -3.10601e-018 -2.51263e-017
LeftArm  -17.0714 28.0707 -80.7765
LeftForeArm  25.9586 -23.9749 -3.70945
LeftHand  -0.324022 0.00447785 7.04246
RightShoulder  -4.96962e-017 0 -2.36833e-017
RightArm  -25.8178 -20.0904 76.5727
RightForeArm  53.3257 15.4255 1.14194
RightHand  -0.304315 -0.564382 -7.30294
LeftUpLeg  -6.7415 1.60543 -0.89703
LeftLeg  6.8315 14.2411 0.774627
LeftFoot  4.54344 -0.0453961 1.30587
LeftToes  -17.0306 1.89912e-006 4.45198e-008
477
root  -32.9947 34.94 3.48147 -173.796 80.3405 179.181
RightUpLeg  -5.11582 -10.6129 -1.53071
RightLeg  6.14024 10.1833 0.437469
RightFoot  3.55747 -0.00813662 0.734564
RightToes  -34.8864 -0.177513 -0.282807
Spine  -2.24386 0.554386 -0.439762
Spine1  -4.54559 1.18635 -0.181222
HEad  -40.4421 -10.1439 11.1357
LeftShoulder1  -1.94126e-019 -3.10601e-018 -2.51263e-017
LeftArm  -13.8899 25.6697 -81.0566
LeftForeArm  26.1323 -27.34 -4.43262
LeftHand  -0.323804 -0.00976178 7.02053
RightShoulder  -4.96962e-017 0 -2.36833e-017
RightArm  -23.4155 -18.9347 77.0398
RightForeArm  52.215 17.4466 1.25536
RightHand  -0.303828 -0.426258 -7.10795
LeftUpLeg  -5.90084 1.55365 -0.842232
LeftLeg  5.09683 14.4292 0.351968
LeftFoot  5.42569 -0.0658347 1.55089
LeftToes  -17.0691 1.89912e-006 4.45198e-008
478
root  -32.9874 34.9707 3.52626 -173.825 80.49 179.145
RightUpLeg  -4.83916 -10.5096 -1.46258
RightLeg  5.50502 10.2231 0.326225
RightFoot  3.88749 -0.0106085 0.795657
RightToes  -34.7922 -0.176944 -0.282175
Spine  -2.30634 0.438252 -0.38333
Spine1  -4.6554 0.955632 -0.0588158
HEad  -40.0043 -8.41033 10.0675
LeftShoulder1  -1.94126e-019 -3.10601e-018 -2.51263e-017
LeftArm  -10.7267 23.0728 -81.299
LeftForeArm  26.3666 -29.4718 -4.91114
LeftHand  -0.316591 0.0234002 6.90375
RightShoulder  -4.96962e-017 0 -2.36833e-017
RightArm  -21.8307 -18.5337 77.4221
RightForeArm  51.6305 21.0747 1.94512
RightHand  -0.302491 -0.322632 -6.93698
LeftUpLeg  -5.35133 1.66039 -0.782283
LeftLeg  3.95414 14.4653 0.0674835
LeftFoot  6.03166 -0.0816456 1.71116
LeftToes  -17.0605 1.89912e-006 4.45198e-008
479
root  -32.9771 34.9836 3.56884 -173.848 80.6279 179.106
RightUpLeg  -4.75581 -10.4243 -1.40068
RightLeg  5.26784 10.2682 0.285317
RightFoot  3.99377 -0.0104539 0.81856
RightToes  -34.6589 -0.176419 -0.28156
Spine  -2.37885 0.304626 -0.290214
Spine1  -4.79074 0.704887 0.131066
HEad  -39.2669 -6.24397 8.65385
LeftShoulder1  -1.94126e-019 -3.10601e-018 -2.51263e-017
LeftArm  -8.01522 20.5764 -81.6411
LeftForeArm  26.8452 -30.6242 -5.16234
LeftHand  -0.295205 -0.0270692 6.3829
RightShoulder  -4.96962e-017 0 -2.36833e-017
RightArm  -20.3502 -18.4327 77.714
RightForeArm  50.9818 24.4818 2.6355
RightHand  -0.302422 -0.21803 -6.80566
LeftUpLeg  -5.01334 1.71947 -0.724434
LeftLeg  3.24936 14.5317 -0.108955
LeftFoot  6.41024 -0.0927549 1.81783
LeftToes  -17.0652 1.89912e-006 4.45198e-008
480
root  -32.9775 34.9938 3.60667 -173.847 80.7946 179.056
RightUpLeg  -4.73315 -10.3398 -1.33956
RightLeg  5.04189 10.3352 0.246582
RightFoot  4.12392 -0.0107642 0.847424
RightToes  -34.6908 -0.175937 -0.280962
Spine  -2.47489 0.141627 -0.176068
Spine1  -4.97254 0.395831 0.36537
HEad  -38.0774 -3.40672 7.03595
LeftShoulder1  -1.94126e-019 -3.10601e-018 -2.51263e-017
LeftArm  -5.39078 18.2957 -82.0146
LeftForeArm  27.8961 -30.9224 -5.18117
LeftHand  -0.292466 -0.116198 6.22987
RightShoulder  -4.96962e-017 0 -2.36833e-017
RightArm  -18.9563 -18.4256 77.9493
RightForeArm  50.5797 27.2337 3.21306
RightHand  -0.301717 0.0229846 -6.51095
LeftUpLeg  -4.816 1.87159 -0.678818
LeftLeg  2.7438 14.5301 -0.235732
LeftFoot  6.69507 -0.101396 1.89277
LeftToes  -17.0837 1.89912e-006 4.45198e-008
481
root  -32.9691 34.9984 3.63953 -173.53 81.1094 179.255
RightUpLeg  -4.7708 -10.1501 -1.23828
RightLeg  4.78313 10.4333 0.202001
RightFoot  4.27178 -0.0115123 0.881862
RightToes  -34.7798 -0.175498 -0.28038
Spine  -2.58772 -0.0159338 -0.019676
Spine1  -5.18723 0.0990093 0.685055
HEad  -36.5171 0.128531 5.49751
LeftShoulder1  -1.94126e-019 -3.10601e-018 -2.51263e-017
LeftArm  -2.76728 16.4271 -82.3291
LeftForeArm  28.2963 -31.0486 -5.19447
LeftHand  -0.287733 -0.112569 6.13312
RightShoulder  -4.96962e-017 0 -2.36833e-017
RightArm  -17.3644 -18.4828 77.9857
RightForeArm  50.2064 29.3821 3.6855
RightHand  -0.288208 0.20948 -6.03087
LeftUpLeg  -4.62856 2.22797 -0.609032
LeftLeg  2.1793 14.4756 -0.375958
LeftFoot  6.94009 -0.108492 1.9506
LeftToes  -17.186 1.89912e-006 4.45198e-008
482
root  -32.9589 35.0034 3.67018 -173.505 81.5249 179.216
RightUpLeg  -4.75833 -9.84001 -1.1939
RightLeg  4.52266 10.5319 0.156249
RightFoot  4.39612 -0.0120379 0.912435
RightToes  -34.8958 -0.175098 -0.279814
Spine  -2.68478 -0.153009 0.135982
Spine1  -5.37343 -0.157031 1.0019
HEad  -34.5121 4.43718 3.80784
LeftShoulder1  -1.94126e-019 -3.10601e-018 -2.51263e-017
LeftArm  -0.10364 15.0642 -82.4597
LeftForeArm  28.6518 -31.3064 -5.24063
LeftHand  -0.259421 -0.219707 5.43632
RightShoulder  -4.96962e-017 0 -2.36833e-017
RightArm  -15.6836 -18.5271 77.8623
RightForeArm  50.0208 30.7705 3.99783
RightHand  -0.273455 0.392587 -5.55998
LeftUpLeg  -4.41237 2.63126 -0.58118
LeftLeg  1.7069 14.4544 -0.493371
LeftFoot  7.16772 -0.115008 2.0078
LeftToes  -17.346 1.89912e-006 4.45198e-008
483
root  -32.9483 35.0034 3.69407 -173.491 81.9621 179.224
RightUpLeg  -4.7052 -9.46772 -1.1664
RightLeg  4.3084 10.5816 0.117605
RightFoot  4.44625 -0.0114092 0.925831
RightToes  -34.7774 -0.174739 -0.279265
Spine  -2.74666 -0.26566 0.332325
Spine1  -5.49164 -0.365539 1.3993
HEad  -31.8969 9.22114 2.36979
LeftShoulder1  -1.94126e-019 -3.10601e-018 -2.51263e-017
LeftArm  3.21003 14.103 -82.3988
LeftForeArm  28.9225 -31.9634 -5.38513
LeftHand  -0.249288 -0.227886 5.21838
RightShoulder  -4.96962e-017 0 -2.36833e-017
RightArm  -14.2656 -18.6818 77.4375
RightForeArm  49.8855 32.0805 4.29825
RightHand  -0.235538 0.568411 -4.67095
LeftUpLeg  -4.2286 3.02021 -0.556547
LeftLeg  1.43543 14.4957 -0.562753
LeftFoot  7.2601 -0.119059 2.03807
LeftToes  -17.4176 1.89912e-006 4.45198e-008
484
root  -32.9452 35.0059 3.71149 -173.572 82.332 179.169
RightUpLeg  -4.61875 -9.20607 -1.16632
RightLeg  4.08359 10.6829 0.0770253
RightFoot  4.55698 -0.0118877 0.95435
RightToes  -34.9548 -0.174416 -0.278732
Spine  -2.75934 -0.351104 0.541689
Spine1  -5.51218 -0.520494 1.81958
HEad  -28.8933 13.9886 1.15651
LeftShoulder1  -1.94126e-019 -3.10601e-018 -2.51263e-017
LeftArm  6.72227 13.4295 -82.0322
LeftForeArm  30.3809 -33.2561 -5.62205
LeftHand  -0.229629 -0.944004 4.3285
RightShoulder  -4.96962e-017 0 -2.36833e-017
RightArm  -13.3835 -19.0749 76.788
RightForeArm  49.0509 33.7849 4.73344
RightHand  -0.171174 0.471933 -3.45834
LeftUpLeg  -4.0938 3.28719 -0.547334
LeftLeg  1.29904 14.5713 -0.599971
LeftFoot  7.2974 -0.121775 2.05851
LeftToes  -17.4144 1.89912e-006 4.45198e-008
